<svg width="74" height="74" viewBox="0 0 74 74" fill="none" xmlns="http://www.w3.org/2000/svg">
<mask id="mask0_3173_6731" style="mask-type:luminance" maskUnits="userSpaceOnUse" x="12" y="6" width="49" height="62">
<path d="M12.1904 6.09521H60.9523V67.0476H12.1904V6.09521Z" fill="white"/>
</mask>
<g mask="url(#mask0_3173_6731)">
<path fill-rule="evenodd" clip-rule="evenodd" d="M14.979 58.3009V10.0419C14.979 10.0419 15.1466 7.34474 13.7142 6.43045V6.09521H32.3047C33.9245 6.09521 35.5413 6.23693 37.1352 6.52188C39.4885 6.93897 41.6795 8.00203 43.4635 9.59232C45.2475 11.1826 46.5544 13.2375 47.2381 15.5276C47.9576 17.8741 48.1201 20.3561 47.7127 22.7764C47.3054 25.1967 46.3394 27.4887 44.8914 29.4705C43.4895 31.2792 41.8438 32.8838 40 34.24C39.5885 34.5295 39.3447 34.6819 38.9181 34.9562C41.3783 38.6729 43.3789 42.6741 44.8762 46.8724C46.1531 50.5378 47.1165 54.3049 47.7561 58.1333C48.1523 61.3028 49.0971 61.6228 49.28 61.6838V62.0343H38.1562V61.6838C38.4914 61.5009 41.5085 60.16 41.5238 55.4819C41.3974 51.5242 40.5934 47.6174 39.1466 43.9314C38.2342 41.4068 37.1497 38.9477 35.9009 36.5714C33.758 37.4334 31.5387 38.0916 29.2723 38.5371C27.8247 38.8114 26.3619 39.04 24.5485 39.2381C22.7352 39.4362 21.5009 39.5276 20.5104 39.5885V58.3314C20.5104 58.7428 20.6171 60.9524 22.0342 61.7143V62.0647H13.4552V61.7143C14.8419 60.9828 14.979 58.7428 14.979 58.3314M32.5485 9.26474H20.4647V36.1143C23.0818 35.9728 25.6791 35.5799 28.2209 34.9409C37.0285 32.3352 41.2342 26.1943 41.2952 18.9562C41.2952 14.7505 39.7714 12.1752 38.2476 10.8038C37.2594 10.0432 36.0865 9.55929 34.8495 9.40188C34.1074 9.29871 33.3586 9.25286 32.6095 9.26474M31.3904 38.8876V41.7219C33.3127 41.6049 35.2261 41.3708 37.12 41.0209C37.6381 42.2095 38.0952 43.3371 38.4152 44.2057V44.3276C37.4552 44.4952 36.4342 44.6324 35.3676 44.7543C33.8438 44.9371 32.32 45.0285 31.4209 45.0895V63.3752C31.4209 63.7714 31.5123 65.9352 32.9447 66.6819V67.0476H24.5181V66.7124C25.8742 65.9962 26.0419 63.8019 26.0419 63.4057V39.8628C27.8506 39.6312 29.646 39.3057 31.4209 38.8876M42.499 39.2533C45.2862 38.0398 47.655 36.0334 49.3105 33.4838C50.9659 30.9342 51.835 27.9541 51.8095 24.9143C51.8095 20.7847 50.3923 18.2857 48.7619 16.9143L48.4723 16.7619C48.3504 16.2743 48.2285 15.8019 48.0761 15.3447C47.7662 14.4198 47.3788 13.5226 46.9181 12.6628C47.2076 12.6628 47.4819 12.7543 47.7409 12.8C50.047 13.2133 52.1939 14.2561 53.9446 15.8131C55.6952 17.3701 56.9813 19.3807 57.6609 21.6228C58.3722 23.93 58.5345 26.3715 58.1351 28.7526C57.7356 31.1336 56.7853 33.3884 55.36 35.3371C53.9838 37.1063 52.3683 38.6756 50.56 40C50.1638 40.2895 49.92 40.4419 49.5085 40.7162C51.9173 44.3552 53.8722 48.275 55.3295 52.3885C56.5791 55.982 57.5322 59.6718 58.179 63.4209C58.5447 66.4685 59.4742 66.7733 59.7028 66.8343V67.0476H48.7619V66.7124C49.0971 66.5447 52.0533 65.3257 52.0685 60.7085C51.9576 56.829 51.1739 52.9981 49.7523 49.3866C48.8263 46.9219 47.7421 44.5194 46.5066 42.1943C45.9581 42.4381 45.1657 42.7124 44.2971 43.0019C43.7333 41.6914 43.1542 40.5028 42.499 39.299M40.0304 15.4057H31.3904V32.8381C30.2872 33.3562 29.1459 33.7889 27.9771 34.1333C27.3304 34.3244 26.6743 34.4821 26.0114 34.6057V16.1676C26.0114 16.1676 26.1638 13.5314 24.6857 12.6324V12.2971H38.5066C39.2182 13.1962 39.7379 14.2354 40.0304 15.3447" fill="black"/>
</g>
</svg>
